<mxfile host="app.diagrams.net" modified="2025-04-18T10:00:00.000Z" agent="Mozilla/5.0" version="25.0.3" etag="IzgOZE_jshMeT9yFcx1l" type="device">
  <diagram id="process-1-patient-registration" name="Patient Registration">
    <mxGraphModel dx="1422" dy="762" grid="1" gridSize="10" guides="1" tooltips="1" connect="1" arrows="1" fold="1" page="1" pageScale="1" pageWidth="827" pageHeight="1169" math="0" shadow="0">
      <root>
        <mxCell id="0" />
        <mxCell id="1" parent="0" />
        <!-- Внешние сущности -->
        <mxCell id="2" value="Пациент" style="html=1;dashed=0;whitespace=wrap;shape=mxgraph.dfd.externalEntity;fontSize=14;" vertex="1" parent="1">
          <mxGeometry x="80" y="200" width="100" height="100" as="geometry" />
        </mxCell>
        <mxCell id="3" value="Сотрудник ресепшена" style="html=1;dashed=0;whitespace=wrap;shape=mxgraph.dfd.externalEntity;fontSize=14;" vertex="1" parent="1">
          <mxGeometry x="320" y="200" width="100" height="100" as="geometry" />
        </mxCell>
        <mxCell id="4" value="Врач" style="html=1;dashed=0;whitespace=wrap;shape=mxgraph.dfd.externalEntity;fontSize=14;" vertex="1" parent="1">
          <mxGeometry x="640" y="200" width="100" height="100" as="geometry" />
        </mxCell>
        
        <!-- Процессы -->
        <mxCell id="5" value="1.1&#xa;Ввод данных&#xa;пациента" style="shape=ellipse;html=1;dashed=0;whitespace=wrap;perimeter=ellipsePerimeter;fontSize=14;" vertex="1" parent="1">
          <mxGeometry x="320" y="380" width="100" height="100" as="geometry" />
        </mxCell>
        <mxCell id="6" value="1.2&#xa;Запись на&#xa;прием" style="shape=ellipse;html=1;dashed=0;whitespace=wrap;perimeter=ellipsePerimeter;fontSize=14;" vertex="1" parent="1">
          <mxGeometry x="320" y="560" width="100" height="100" as="geometry" />
        </mxCell>
        <mxCell id="7" value="1.3&#xa;Просмотр&#xa;расписания" style="shape=ellipse;html=1;dashed=0;whitespace=wrap;perimeter=ellipsePerimeter;fontSize=14;" vertex="1" parent="1">
          <mxGeometry x="640" y="380" width="100" height="100" as="geometry" />
        </mxCell>
        
        <!-- Хранилища данных -->
        <mxCell id="8" value="Excel-список пациентов" style="html=1;dashed=0;whitespace=wrap;shape=mxgraph.dfd.dataStoreID;align=left;spacingLeft=30;fontSize=14;" vertex="1" parent="1">
          <mxGeometry x="480" y="400" width="140" height="60" as="geometry" />
        </mxCell>
        <mxCell id="9" value="Excel-журнал врача" style="html=1;dashed=0;whitespace=wrap;shape=mxgraph.dfd.dataStoreID;align=left;spacingLeft=30;fontSize=14;" vertex="1" parent="1">
          <mxGeometry x="480" y="580" width="140" height="60" as="geometry" />
        </mxCell>
        
        <!-- Потоки данных -->
        <mxCell id="10" value="Персональные данные (PII-H)" style="html=1;verticalAlign=bottom;endArrow=block;entryX=0;entryY=0.5;exitX=1;exitY=0.5;" edge="1" parent="1" source="2" target="3">
          <mxGeometry width="80" relative="1" as="geometry">
            <mxPoint x="200" y="390" as="sourcePoint" />
            <mxPoint x="280" y="390" as="targetPoint" />
          </mxGeometry>
        </mxCell>
        <mxCell id="11" value="Данные пациента" style="html=1;verticalAlign=bottom;endArrow=block;entryX=0.5;entryY=0;exitX=0.5;exitY=1;" edge="1" parent="1" source="3" target="5">
          <mxGeometry width="80" relative="1" as="geometry">
            <mxPoint x="360" y="330" as="sourcePoint" />
            <mxPoint x="440" y="330" as="targetPoint" />
          </mxGeometry>
        </mxCell>
        <mxCell id="12" value="Запись данных" style="html=1;verticalAlign=bottom;endArrow=block;entryX=0;entryY=0.5;exitX=1;exitY=0.5;" edge="1" parent="1" source="5" target="8">
          <mxGeometry width="80" relative="1" as="geometry">
            <mxPoint x="430" y="430" as="sourcePoint" />
            <mxPoint x="510" y="430" as="targetPoint" />
          </mxGeometry>
        </mxCell>
        <mxCell id="13" value="Параметры записи" style="html=1;verticalAlign=bottom;endArrow=block;entryX=0.5;entryY=0;exitX=0.5;exitY=1;" edge="1" parent="1" source="5" target="6">
          <mxGeometry width="80" relative="1" as="geometry">
            <mxPoint x="330" y="500" as="sourcePoint" />
            <mxPoint x="410" y="500" as="targetPoint" />
          </mxGeometry>
        </mxCell>
        <mxCell id="14" value="Данные о записи" style="html=1;verticalAlign=bottom;endArrow=block;entryX=0;entryY=0.5;exitX=1;exitY=0.5;" edge="1" parent="1" source="6" target="9">
          <mxGeometry width="80" relative="1" as="geometry">
            <mxPoint x="430" y="610" as="sourcePoint" />
            <mxPoint x="510" y="610" as="targetPoint" />
          </mxGeometry>
        </mxCell>
        <mxCell id="15" value="Проверка расписания" style="html=1;verticalAlign=bottom;endArrow=block;entryX=0.5;entryY=0;exitX=0.5;exitY=1;" edge="1" parent="1" source="4" target="7">
          <mxGeometry width="80" relative="1" as="geometry">
            <mxPoint x="640" y="330" as="sourcePoint" />
            <mxPoint x="720" y="330" as="targetPoint" />
          </mxGeometry>
        </mxCell>
        <mxCell id="16" value="Получение данных" style="html=1;verticalAlign=bottom;endArrow=block;entryX=0;entryY=0.5;exitX=1;exitY=0.5;" edge="1" parent="1" source="9" target="7">
          <mxGeometry x="-0.1176" y="10" width="80" relative="1" as="geometry">
            <mxPoint x="620" y="610" as="sourcePoint" />
            <mxPoint x="640" y="430" as="targetPoint" />
            <Array as="points">
              <mxPoint x="640" y="610" />
            </Array>
            <mxPoint as="offset" />
          </mxGeometry>
        </mxCell>
      </root>
    </mxGraphModel>
  </diagram>
</mxfile>